<?xml version="1.0" encoding="UTF-8" standalone="no"?>
<!-- Generator: Adobe Illustrator 18.1.1, SVG Export Plug-In . SVG Version: 6.00 Build 0)  -->

<svg
   xmlns:dc="http://purl.org/dc/elements/1.1/"
   xmlns:cc="http://creativecommons.org/ns#"
   xmlns:rdf="http://www.w3.org/1999/02/22-rdf-syntax-ns#"
   xmlns:svg="http://www.w3.org/2000/svg"
   xmlns="http://www.w3.org/2000/svg"
   xmlns:sodipodi="http://sodipodi.sourceforge.net/DTD/sodipodi-0.dtd"
   xmlns:inkscape="http://www.inkscape.org/namespaces/inkscape"
   version="1.1"
   id="Capa_1"
   x="0px"
   y="0px"
   viewBox="0 0 512 512"
   xml:space="preserve"
   sodipodi:docname="nikya_massSwitch.svg"
   inkscape:version="0.92.2 (5c3e80d, 2017-08-06)"
   width="512"
   height="512"
   inkscape:export-filename="\\MEDIATHEQUE\web\yEedomus\eedomusScript_massSwitch\dist\img\nikya_masswitch.png"
   inkscape:export-xdpi="24"
   inkscape:export-ydpi="24"><title
     id="title4580">Nuki eedomus plugin</title><metadata
     id="metadata69"><rdf:RDF><cc:Work
         rdf:about=""><dc:format>image/svg+xml</dc:format><dc:type
           rdf:resource="http://purl.org/dc/dcmitype/StillImage" /><dc:title>Nuki eedomus plugin</dc:title><cc:license
           rdf:resource="http://creativecommons.org/licenses/by-nc-sa/4.0/" /><dc:date>17/11/2017</dc:date><dc:creator><cc:Agent><dc:title>Nikya</dc:title></cc:Agent></dc:creator><dc:subject><rdf:Bag><rdf:li>eedomus</rdf:li><rdf:li>nuki</rdf:li></rdf:Bag></dc:subject></cc:Work><cc:License
         rdf:about="http://creativecommons.org/licenses/by-nc-sa/4.0/"><cc:permits
           rdf:resource="http://creativecommons.org/ns#Reproduction" /><cc:permits
           rdf:resource="http://creativecommons.org/ns#Distribution" /><cc:requires
           rdf:resource="http://creativecommons.org/ns#Notice" /><cc:requires
           rdf:resource="http://creativecommons.org/ns#Attribution" /><cc:prohibits
           rdf:resource="http://creativecommons.org/ns#CommercialUse" /><cc:permits
           rdf:resource="http://creativecommons.org/ns#DerivativeWorks" /><cc:requires
           rdf:resource="http://creativecommons.org/ns#ShareAlike" /></cc:License></rdf:RDF></metadata><defs
     id="defs67" /><sodipodi:namedview
     pagecolor="#ffffff"
     bordercolor="#666666"
     borderopacity="1"
     objecttolerance="10"
     gridtolerance="10"
     guidetolerance="10"
     inkscape:pageopacity="0"
     inkscape:pageshadow="2"
     inkscape:window-width="1680"
     inkscape:window-height="987"
     id="namedview65"
     showgrid="false"
     inkscape:zoom="0.39404297"
     inkscape:cx="42.840382"
     inkscape:cy="36.150658"
     inkscape:window-x="-8"
     inkscape:window-y="194"
     inkscape:window-maximized="1"
     inkscape:current-layer="layer1"
     inkscape:snap-page="true"
     showguides="true"
     inkscape:guide-bbox="true"
     inkscape:snap-object-midpoints="true"
     inkscape:snap-global="false" /><g
     inkscape:groupmode="layer"
     id="layer1"
     inkscape:label="old"><path
       style="opacity:1;fill:#585858;fill-opacity:1;fill-rule:nonzero;stroke:none;stroke-width:16.5178318;stroke-linecap:butt;stroke-miterlimit:4;stroke-dasharray:none;stroke-dashoffset:0;stroke-opacity:1"
       d="M 0 0 L 0 512 L 165.99023 461.18359 L 165.99023 423.24219 A 22.5 22.5 0 0 1 163.51758 423.4043 A 22.5 22.5 0 0 1 141.01758 400.9043 A 22.5 22.5 0 0 1 163.51758 378.4043 A 22.5 22.5 0 0 1 165.99023 378.55273 L 165.99023 372.26172 A 6.083643 6.083643 0 0 1 165.94531 372.26367 A 6.083643 6.083643 0 0 1 159.86328 366.18164 A 6.083643 6.083643 0 0 1 165.94531 360.09766 A 6.083643 6.083643 0 0 1 165.99023 360.09961 L 165.99023 346.7793 A 6.083643 6.083643 0 0 1 165.94531 346.78125 A 6.083643 6.083643 0 0 1 159.86328 340.69727 A 6.083643 6.083643 0 0 1 165.94531 334.61328 A 6.083643 6.083643 0 0 1 165.99023 334.61523 L 165.99023 321.29492 A 6.083643 6.083643 0 0 1 165.94531 321.29688 A 6.083643 6.083643 0 0 1 159.86328 315.21289 A 6.083643 6.083643 0 0 1 165.94531 309.13086 A 6.083643 6.083643 0 0 1 165.99023 309.13281 L 165.99023 295.8125 A 6.083643 6.083643 0 0 1 165.94531 295.81445 A 6.083643 6.083643 0 0 1 159.86328 289.73047 A 6.083643 6.083643 0 0 1 165.94531 283.64648 A 6.083643 6.083643 0 0 1 165.99023 283.64844 L 165.99023 278.33594 A 22.5 22.5 0 0 1 163.51758 278.5 A 22.5 22.5 0 0 1 141.01758 256 A 22.5 22.5 0 0 1 163.51758 233.5 A 22.5 22.5 0 0 1 165.99023 233.64844 L 165.99023 228.25391 A 6.083643 6.083643 0 0 1 165.94531 228.25586 A 6.083643 6.083643 0 0 1 159.86328 222.17383 A 6.083643 6.083643 0 0 1 165.94531 216.08984 A 6.083643 6.083643 0 0 1 165.99023 216.0918 L 165.99023 202.77148 A 6.083643 6.083643 0 0 1 165.94531 202.77344 A 6.083643 6.083643 0 0 1 159.86328 196.68945 A 6.083643 6.083643 0 0 1 165.94531 190.60547 A 6.083643 6.083643 0 0 1 165.99023 190.60742 L 165.99023 177.28711 A 6.083643 6.083643 0 0 1 165.94531 177.28906 A 6.083643 6.083643 0 0 1 159.86328 171.20508 A 6.083643 6.083643 0 0 1 165.94531 165.12109 A 6.083643 6.083643 0 0 1 165.99023 165.12305 L 165.99023 151.80273 A 6.083643 6.083643 0 0 1 165.94531 151.80469 A 6.083643 6.083643 0 0 1 159.86328 145.72266 A 6.083643 6.083643 0 0 1 165.94531 139.63867 A 6.083643 6.083643 0 0 1 165.99023 139.64062 L 165.99023 133.43164 A 22.5 22.5 0 0 1 163.51758 133.5957 A 22.5 22.5 0 0 1 141.01758 111.0957 A 22.5 22.5 0 0 1 163.51758 88.595703 A 22.5 22.5 0 0 1 165.99023 88.742188 L 165.99023 50.816406 L 0 0 z "
       id="path859" /><g
       id="g34"
       style="fill:#ff7300;fill-opacity:1"
       transform="translate(0,-100)" /><g
       id="g36"
       style="fill:#ff7300;fill-opacity:1"
       transform="translate(0,-100)" /><g
       id="g38"
       style="fill:#ff7300;fill-opacity:1"
       transform="translate(0,-100)" /><g
       id="g40"
       style="fill:#ff7300;fill-opacity:1"
       transform="translate(0,-100)" /><g
       id="g42"
       style="fill:#ff7300;fill-opacity:1"
       transform="translate(0,-100)" /><g
       id="g44"
       style="fill:#ff7300;fill-opacity:1"
       transform="translate(0,-100)" /><g
       id="g46"
       style="fill:#ff7300;fill-opacity:1"
       transform="translate(0,-100)" /><g
       id="g48"
       style="fill:#ff7300;fill-opacity:1"
       transform="translate(0,-100)" /><g
       id="g50"
       style="fill:#ff7300;fill-opacity:1"
       transform="translate(0,-100)" /><g
       id="g52"
       style="fill:#ff7300;fill-opacity:1"
       transform="translate(0,-100)" /><g
       id="g54"
       style="fill:#ff7300;fill-opacity:1"
       transform="translate(0,-100)" /><g
       id="g56"
       style="fill:#ff7300;fill-opacity:1"
       transform="translate(0,-100)" /><g
       id="g58"
       style="fill:#ff7300;fill-opacity:1"
       transform="translate(0,-100)" /><g
       id="g60"
       style="fill:#ff7300;fill-opacity:1"
       transform="translate(0,-100)" /><g
       id="g62"
       style="fill:#ff7300;fill-opacity:1"
       transform="translate(0,-100)" /><text
       xml:space="preserve"
       style="font-style:normal;font-weight:normal;font-size:58.22254944px;line-height:1.25;font-family:sans-serif;letter-spacing:0px;word-spacing:0px;fill:#ffffff;fill-opacity:1;stroke:none;stroke-width:1.4555639"
       x="6.9296703"
       y="274.41922"
       id="text883"><tspan
         sodipodi:role="line"
         id="tspan881"
         x="6.9296703"
         y="274.41922"
         style="font-style:normal;font-variant:normal;font-weight:normal;font-stretch:normal;font-family:'Black Ops One';-inkscape-font-specification:'Black Ops One';fill:#ffffff;stroke-width:1.4555639">50</tspan></text>
<text
       id="text887"
       y="418.87579"
       x="5.9630852"
       style="font-style:normal;font-weight:normal;font-size:58.22254944px;line-height:1.25;font-family:sans-serif;letter-spacing:0px;word-spacing:0px;fill:#ffffff;fill-opacity:1;stroke:none;stroke-width:1.4555639"
       xml:space="preserve"><tspan
         style="font-style:normal;font-variant:normal;font-weight:normal;font-stretch:normal;font-family:'Black Ops One';-inkscape-font-specification:'Black Ops One';fill:#ffffff;stroke-width:1.4555639"
         y="418.87579"
         x="5.9630852"
         id="tspan885"
         sodipodi:role="line">100</tspan></text>
<text
       xml:space="preserve"
       style="font-style:normal;font-weight:normal;font-size:58.22254944px;line-height:1.25;font-family:sans-serif;letter-spacing:0px;word-spacing:0px;fill:#ffffff;fill-opacity:1;stroke:none;stroke-width:1.4555639"
       x="6.9296703"
       y="130.85991"
       id="text891"><tspan
         sodipodi:role="line"
         id="tspan889"
         x="6.9296703"
         y="130.85991"
         style="font-style:normal;font-variant:normal;font-weight:normal;font-stretch:normal;font-family:'Black Ops One';-inkscape-font-specification:'Black Ops One';fill:#ffffff;stroke-width:1.4555639">0</tspan></text>
<g
       transform="matrix(0.38399175,0.53283216,-0.53283216,0.38399175,473.79744,-161.97379)"
       id="g1183"
       style="opacity:0.547;fill:#d41c1c;fill-opacity:1;stroke:#d41c1c;stroke-opacity:1"><circle
         style="opacity:1;fill:#585858;fill-opacity:1;fill-rule:nonzero;stroke:none;stroke-width:20.5000782;stroke-linecap:butt;stroke-miterlimit:4;stroke-dasharray:none;stroke-dashoffset:0;stroke-opacity:1"
         id="circle1173"
         cx="299.00125"
         cy="247.47615"
         r="22.5" /><circle
         style="opacity:1;fill:none;fill-opacity:1;fill-rule:nonzero;stroke:#585858;stroke-width:6;stroke-linecap:butt;stroke-miterlimit:4;stroke-dasharray:none;stroke-dashoffset:0;stroke-opacity:1"
         id="circle1175"
         cx="299.00125"
         cy="247.47615"
         r="78.648697" /><path
         inkscape:connector-curvature="0"
         id="path1177"
         d="m 295.37305,167.17773 v 21.44532 a 58.980789,58.980789 0 0 1 3.6289,-0.12696 58.980789,58.980789 0 0 1 3.62696,0.17969 v -21.49805 z m 0,139.09766 v 20.82422 h 7.25586 v -20.77149 a 58.980789,58.980789 0 0 1 -3.62696,0.12891 58.980789,58.980789 0 0 1 -3.6289,-0.18164 z"
         style="color:#000000;font-style:normal;font-variant:normal;font-weight:normal;font-stretch:normal;font-size:medium;line-height:normal;font-family:sans-serif;font-variant-ligatures:normal;font-variant-position:normal;font-variant-caps:normal;font-variant-numeric:normal;font-variant-alternates:normal;font-feature-settings:normal;text-indent:0;text-align:start;text-decoration:none;text-decoration-line:none;text-decoration-style:solid;text-decoration-color:#000000;letter-spacing:normal;word-spacing:normal;text-transform:none;writing-mode:lr-tb;direction:ltr;text-orientation:mixed;dominant-baseline:auto;baseline-shift:baseline;text-anchor:start;white-space:normal;shape-padding:0;clip-rule:nonzero;display:inline;overflow:visible;visibility:visible;opacity:1;isolation:auto;mix-blend-mode:normal;color-interpolation:sRGB;color-interpolation-filters:linearRGB;solid-color:#000000;solid-opacity:1;vector-effect:none;fill:#585858;fill-opacity:1;fill-rule:nonzero;stroke:none;stroke-width:7.25638151;stroke-linecap:butt;stroke-linejoin:miter;stroke-miterlimit:4;stroke-dasharray:none;stroke-dashoffset:0;stroke-opacity:1;color-rendering:auto;image-rendering:auto;shape-rendering:auto;text-rendering:auto;enable-background:accumulate" /><path
         inkscape:connector-curvature="0"
         id="path1179"
         d="m 218.56445,243.73633 v 7.47851 h 21.58789 a 58.980789,58.980789 0 0 1 -0.13281,-3.73828 58.980789,58.980789 0 0 1 0.1875,-3.74023 z m 139.28516,0 a 58.980789,58.980789 0 0 1 0.13281,3.74023 58.980789,58.980789 0 0 1 -0.1875,3.73828 h 21.96094 v -7.47851 z"
         style="color:#000000;font-style:normal;font-variant:normal;font-weight:normal;font-stretch:normal;font-size:medium;line-height:normal;font-family:sans-serif;font-variant-ligatures:normal;font-variant-position:normal;font-variant-caps:normal;font-variant-numeric:normal;font-variant-alternates:normal;font-feature-settings:normal;text-indent:0;text-align:start;text-decoration:none;text-decoration-line:none;text-decoration-style:solid;text-decoration-color:#000000;letter-spacing:normal;word-spacing:normal;text-transform:none;writing-mode:lr-tb;direction:ltr;text-orientation:mixed;dominant-baseline:auto;baseline-shift:baseline;text-anchor:start;white-space:normal;shape-padding:0;clip-rule:nonzero;display:inline;overflow:visible;visibility:visible;opacity:1;isolation:auto;mix-blend-mode:normal;color-interpolation:sRGB;color-interpolation-filters:linearRGB;solid-color:#000000;solid-opacity:1;vector-effect:none;fill:#585858;fill-opacity:1;fill-rule:nonzero;stroke:none;stroke-width:7.47788048;stroke-linecap:butt;stroke-linejoin:miter;stroke-miterlimit:4;stroke-dasharray:none;stroke-dashoffset:0;stroke-opacity:1;color-rendering:auto;image-rendering:auto;shape-rendering:auto;text-rendering:auto;enable-background:accumulate" /><circle
         r="78.648697"
         cy="247.47615"
         cx="299.00125"
         id="circle1181"
         style="opacity:1;fill:none;fill-opacity:1;fill-rule:nonzero;stroke:#585858;stroke-width:6;stroke-linecap:butt;stroke-miterlimit:4;stroke-dasharray:none;stroke-dashoffset:0;stroke-opacity:1" /></g><g
       style="opacity:0.806;fill:#d41c1c;fill-opacity:1;stroke:#d41c1c;stroke-opacity:1"
       id="g1147"
       transform="matrix(0.69328387,0.40026763,-0.40026763,0.69328387,277.10787,-139.73981)"><circle
         r="22.5"
         cy="247.47615"
         cx="299.00125"
         id="circle1137"
         style="opacity:1;fill:#585858;fill-opacity:1;fill-rule:nonzero;stroke:none;stroke-width:20.5000782;stroke-linecap:butt;stroke-miterlimit:4;stroke-dasharray:none;stroke-dashoffset:0;stroke-opacity:1" /><circle
         r="78.648697"
         cy="247.47615"
         cx="299.00125"
         id="circle1139"
         style="opacity:1;fill:none;fill-opacity:1;fill-rule:nonzero;stroke:#585858;stroke-width:6;stroke-linecap:butt;stroke-miterlimit:4;stroke-dasharray:none;stroke-dashoffset:0;stroke-opacity:1" /><path
         style="color:#000000;font-style:normal;font-variant:normal;font-weight:normal;font-stretch:normal;font-size:medium;line-height:normal;font-family:sans-serif;font-variant-ligatures:normal;font-variant-position:normal;font-variant-caps:normal;font-variant-numeric:normal;font-variant-alternates:normal;font-feature-settings:normal;text-indent:0;text-align:start;text-decoration:none;text-decoration-line:none;text-decoration-style:solid;text-decoration-color:#000000;letter-spacing:normal;word-spacing:normal;text-transform:none;writing-mode:lr-tb;direction:ltr;text-orientation:mixed;dominant-baseline:auto;baseline-shift:baseline;text-anchor:start;white-space:normal;shape-padding:0;clip-rule:nonzero;display:inline;overflow:visible;visibility:visible;opacity:1;isolation:auto;mix-blend-mode:normal;color-interpolation:sRGB;color-interpolation-filters:linearRGB;solid-color:#000000;solid-opacity:1;vector-effect:none;fill:#585858;fill-opacity:1;fill-rule:nonzero;stroke:none;stroke-width:7.25638151;stroke-linecap:butt;stroke-linejoin:miter;stroke-miterlimit:4;stroke-dasharray:none;stroke-dashoffset:0;stroke-opacity:1;color-rendering:auto;image-rendering:auto;shape-rendering:auto;text-rendering:auto;enable-background:accumulate"
         d="m 295.37305,167.17773 v 21.44532 a 58.980789,58.980789 0 0 1 3.6289,-0.12696 58.980789,58.980789 0 0 1 3.62696,0.17969 v -21.49805 z m 0,139.09766 v 20.82422 h 7.25586 v -20.77149 a 58.980789,58.980789 0 0 1 -3.62696,0.12891 58.980789,58.980789 0 0 1 -3.6289,-0.18164 z"
         id="path1141"
         inkscape:connector-curvature="0" /><path
         style="color:#000000;font-style:normal;font-variant:normal;font-weight:normal;font-stretch:normal;font-size:medium;line-height:normal;font-family:sans-serif;font-variant-ligatures:normal;font-variant-position:normal;font-variant-caps:normal;font-variant-numeric:normal;font-variant-alternates:normal;font-feature-settings:normal;text-indent:0;text-align:start;text-decoration:none;text-decoration-line:none;text-decoration-style:solid;text-decoration-color:#000000;letter-spacing:normal;word-spacing:normal;text-transform:none;writing-mode:lr-tb;direction:ltr;text-orientation:mixed;dominant-baseline:auto;baseline-shift:baseline;text-anchor:start;white-space:normal;shape-padding:0;clip-rule:nonzero;display:inline;overflow:visible;visibility:visible;opacity:1;isolation:auto;mix-blend-mode:normal;color-interpolation:sRGB;color-interpolation-filters:linearRGB;solid-color:#000000;solid-opacity:1;vector-effect:none;fill:#585858;fill-opacity:1;fill-rule:nonzero;stroke:none;stroke-width:7.47788048;stroke-linecap:butt;stroke-linejoin:miter;stroke-miterlimit:4;stroke-dasharray:none;stroke-dashoffset:0;stroke-opacity:1;color-rendering:auto;image-rendering:auto;shape-rendering:auto;text-rendering:auto;enable-background:accumulate"
         d="m 218.56445,243.73633 v 7.47851 h 21.58789 a 58.980789,58.980789 0 0 1 -0.13281,-3.73828 58.980789,58.980789 0 0 1 0.1875,-3.74023 z m 139.28516,0 a 58.980789,58.980789 0 0 1 0.13281,3.74023 58.980789,58.980789 0 0 1 -0.1875,3.73828 h 21.96094 v -7.47851 z"
         id="path1143"
         inkscape:connector-curvature="0" /><circle
         style="opacity:1;fill:none;fill-opacity:1;fill-rule:nonzero;stroke:#585858;stroke-width:6;stroke-linecap:butt;stroke-miterlimit:4;stroke-dasharray:none;stroke-dashoffset:0;stroke-opacity:1"
         id="circle1145"
         cx="299.00125"
         cy="247.47615"
         r="78.648697" /></g><g
       style="fill:#d41c1c;fill-opacity:1;stroke:#d41c1c;stroke-opacity:1"
       transform="matrix(0.88843949,0.51294078,-0.51294078,0.88843949,182.84907,-138.72487)"
       id="g1135"><circle
         style="opacity:1;fill:#585858;fill-opacity:1;fill-rule:nonzero;stroke:none;stroke-width:20.5000782;stroke-linecap:butt;stroke-miterlimit:4;stroke-dasharray:none;stroke-dashoffset:0;stroke-opacity:1"
         id="circle1115"
         cx="299.00125"
         cy="247.47615"
         r="22.5" /><circle
         style="opacity:1;fill:none;fill-opacity:1;fill-rule:nonzero;stroke:#585858;stroke-width:6;stroke-linecap:butt;stroke-miterlimit:4;stroke-dasharray:none;stroke-dashoffset:0;stroke-opacity:1"
         id="circle1117"
         cx="299.00125"
         cy="247.47615"
         r="78.648697" /><path
         inkscape:connector-curvature="0"
         id="path1119"
         d="m 295.37305,167.17773 v 21.44532 a 58.980789,58.980789 0 0 1 3.6289,-0.12696 58.980789,58.980789 0 0 1 3.62696,0.17969 v -21.49805 z m 0,139.09766 v 20.82422 h 7.25586 v -20.77149 a 58.980789,58.980789 0 0 1 -3.62696,0.12891 58.980789,58.980789 0 0 1 -3.6289,-0.18164 z"
         style="color:#000000;font-style:normal;font-variant:normal;font-weight:normal;font-stretch:normal;font-size:medium;line-height:normal;font-family:sans-serif;font-variant-ligatures:normal;font-variant-position:normal;font-variant-caps:normal;font-variant-numeric:normal;font-variant-alternates:normal;font-feature-settings:normal;text-indent:0;text-align:start;text-decoration:none;text-decoration-line:none;text-decoration-style:solid;text-decoration-color:#000000;letter-spacing:normal;word-spacing:normal;text-transform:none;writing-mode:lr-tb;direction:ltr;text-orientation:mixed;dominant-baseline:auto;baseline-shift:baseline;text-anchor:start;white-space:normal;shape-padding:0;clip-rule:nonzero;display:inline;overflow:visible;visibility:visible;opacity:1;isolation:auto;mix-blend-mode:normal;color-interpolation:sRGB;color-interpolation-filters:linearRGB;solid-color:#000000;solid-opacity:1;vector-effect:none;fill:#585858;fill-opacity:1;fill-rule:nonzero;stroke:none;stroke-width:7.25638151;stroke-linecap:butt;stroke-linejoin:miter;stroke-miterlimit:4;stroke-dasharray:none;stroke-dashoffset:0;stroke-opacity:1;color-rendering:auto;image-rendering:auto;shape-rendering:auto;text-rendering:auto;enable-background:accumulate" /><path
         inkscape:connector-curvature="0"
         id="path1121"
         d="m 218.56445,243.73633 v 7.47851 h 21.58789 a 58.980789,58.980789 0 0 1 -0.13281,-3.73828 58.980789,58.980789 0 0 1 0.1875,-3.74023 z m 139.28516,0 a 58.980789,58.980789 0 0 1 0.13281,3.74023 58.980789,58.980789 0 0 1 -0.1875,3.73828 h 21.96094 v -7.47851 z"
         style="color:#000000;font-style:normal;font-variant:normal;font-weight:normal;font-stretch:normal;font-size:medium;line-height:normal;font-family:sans-serif;font-variant-ligatures:normal;font-variant-position:normal;font-variant-caps:normal;font-variant-numeric:normal;font-variant-alternates:normal;font-feature-settings:normal;text-indent:0;text-align:start;text-decoration:none;text-decoration-line:none;text-decoration-style:solid;text-decoration-color:#000000;letter-spacing:normal;word-spacing:normal;text-transform:none;writing-mode:lr-tb;direction:ltr;text-orientation:mixed;dominant-baseline:auto;baseline-shift:baseline;text-anchor:start;white-space:normal;shape-padding:0;clip-rule:nonzero;display:inline;overflow:visible;visibility:visible;opacity:1;isolation:auto;mix-blend-mode:normal;color-interpolation:sRGB;color-interpolation-filters:linearRGB;solid-color:#000000;solid-opacity:1;vector-effect:none;fill:#585858;fill-opacity:1;fill-rule:nonzero;stroke:none;stroke-width:7.47788048;stroke-linecap:butt;stroke-linejoin:miter;stroke-miterlimit:4;stroke-dasharray:none;stroke-dashoffset:0;stroke-opacity:1;color-rendering:auto;image-rendering:auto;shape-rendering:auto;text-rendering:auto;enable-background:accumulate" /><circle
         r="78.648697"
         cy="247.47615"
         cx="299.00125"
         id="circle1127"
         style="opacity:1;fill:none;fill-opacity:1;fill-rule:nonzero;stroke:#585858;stroke-width:6;stroke-linecap:butt;stroke-miterlimit:4;stroke-dasharray:none;stroke-dashoffset:0;stroke-opacity:1" /></g><g
       id="g949"
       transform="matrix(1.1398684,0,0,1.1398684,-65.929879,71.973262)"><circle
         r="22.5"
         cy="247.47615"
         cx="299.00125"
         id="circle878"
         style="opacity:1;fill:#d46f1c;fill-opacity:1;fill-rule:nonzero;stroke:none;stroke-width:20.5000782;stroke-linecap:butt;stroke-miterlimit:4;stroke-dasharray:none;stroke-dashoffset:0;stroke-opacity:1" /><g
         id="g942"><circle
           r="78.648697"
           cy="247.47615"
           cx="299.00125"
           id="circle921"
           style="opacity:1;fill:none;fill-opacity:1;fill-rule:nonzero;stroke:#d46f1c;stroke-width:6;stroke-linecap:butt;stroke-miterlimit:4;stroke-dasharray:none;stroke-dashoffset:0;stroke-opacity:1" /><path
           style="color:#000000;font-style:normal;font-variant:normal;font-weight:normal;font-stretch:normal;font-size:medium;line-height:normal;font-family:sans-serif;font-variant-ligatures:normal;font-variant-position:normal;font-variant-caps:normal;font-variant-numeric:normal;font-variant-alternates:normal;font-feature-settings:normal;text-indent:0;text-align:start;text-decoration:none;text-decoration-line:none;text-decoration-style:solid;text-decoration-color:#000000;letter-spacing:normal;word-spacing:normal;text-transform:none;writing-mode:lr-tb;direction:ltr;text-orientation:mixed;dominant-baseline:auto;baseline-shift:baseline;text-anchor:start;white-space:normal;shape-padding:0;clip-rule:nonzero;display:inline;overflow:visible;visibility:visible;opacity:1;isolation:auto;mix-blend-mode:normal;color-interpolation:sRGB;color-interpolation-filters:linearRGB;solid-color:#000000;solid-opacity:1;vector-effect:none;fill:#d46f1c;fill-opacity:1;fill-rule:nonzero;stroke:none;stroke-width:7.25638151;stroke-linecap:butt;stroke-linejoin:miter;stroke-miterlimit:4;stroke-dasharray:none;stroke-dashoffset:0;stroke-opacity:1;color-rendering:auto;image-rendering:auto;shape-rendering:auto;text-rendering:auto;enable-background:accumulate"
           d="m 295.37305,167.17773 v 21.44532 a 58.980789,58.980789 0 0 1 3.6289,-0.12696 58.980789,58.980789 0 0 1 3.62696,0.17969 v -21.49805 z m 0,139.09766 v 20.82422 h 7.25586 v -20.77149 a 58.980789,58.980789 0 0 1 -3.62696,0.12891 58.980789,58.980789 0 0 1 -3.6289,-0.18164 z"
           id="path923"
           inkscape:connector-curvature="0" /><path
           style="color:#000000;font-style:normal;font-variant:normal;font-weight:normal;font-stretch:normal;font-size:medium;line-height:normal;font-family:sans-serif;font-variant-ligatures:normal;font-variant-position:normal;font-variant-caps:normal;font-variant-numeric:normal;font-variant-alternates:normal;font-feature-settings:normal;text-indent:0;text-align:start;text-decoration:none;text-decoration-line:none;text-decoration-style:solid;text-decoration-color:#000000;letter-spacing:normal;word-spacing:normal;text-transform:none;writing-mode:lr-tb;direction:ltr;text-orientation:mixed;dominant-baseline:auto;baseline-shift:baseline;text-anchor:start;white-space:normal;shape-padding:0;clip-rule:nonzero;display:inline;overflow:visible;visibility:visible;opacity:1;isolation:auto;mix-blend-mode:normal;color-interpolation:sRGB;color-interpolation-filters:linearRGB;solid-color:#000000;solid-opacity:1;vector-effect:none;fill:#d46f1c;fill-opacity:1;fill-rule:nonzero;stroke:none;stroke-width:7.47788048;stroke-linecap:butt;stroke-linejoin:miter;stroke-miterlimit:4;stroke-dasharray:none;stroke-dashoffset:0;stroke-opacity:1;color-rendering:auto;image-rendering:auto;shape-rendering:auto;text-rendering:auto;enable-background:accumulate"
           d="m 218.56445,243.73633 v 7.47851 h 21.58789 a 58.980789,58.980789 0 0 1 -0.13281,-3.73828 58.980789,58.980789 0 0 1 0.1875,-3.74023 z m 139.28516,0 a 58.980789,58.980789 0 0 1 0.13281,3.74023 58.980789,58.980789 0 0 1 -0.1875,3.73828 h 21.96094 v -7.47851 z"
           id="path925"
           inkscape:connector-curvature="0" /></g></g></g><g
     inkscape:groupmode="layer"
     id="layer2"
     inkscape:label="main" /></svg>